# xmcd
#
# Track frame offsets: 
#        150
#        14020
#        27887
#        38827
#        52250
#        66340
#        79212
#        91192
#        102260
#        114990
#        127822
#        142502
#        154302
#        168810
#
# Disc length: 2396 seconds
#
# Revision: 0
# Processed by: cddbd v1.5.1PL2 Copyright (c) Steve Scherf et al.
# Submitted via: ExactAudioCopy v0.95a4
#
DISCID=ad095a0e
DTITLE=Little Esther - Memory Lane - The Best Songs Little Esther Ever
DTITLE=Recorded
DYEAR=1900
DGENRE=R&B
TTITLE0=Heart to Heart
TTITLE1=I Paid My Dues
TTITLE2=Tell Him That I Need Him
TTITLE3=Ring a Ding Doo
TTITLE4=I'll Be There
TTITLE5=Street Lights
TTITLE6=Mainliner
TTITLE7=Cherry Wine
TTITLE8=Aged and Mellow
TTITLE9=The Deacon Moves In
TTITLE10=Somebody New
TTITLE11=Sweet Lips
TTITLE12=The Storm
TTITLE13=Turn the Lamps Down Low
EXTD=
EXTT0=
EXTT1=
EXTT2=
EXTT3=
EXTT4=
EXTT5=
EXTT6=
EXTT7=
EXTT8=
EXTT9=
EXTT10=
EXTT11=
EXTT12=
EXTT13=
PLAYORDER=
